<svg xmlns="http://www.w3.org/2000/svg" xmlns:xlink="http://www.w3.org/1999/xlink" width="69" height="69" viewBox="0 0 69 69">
  <defs>
    <clipPath id="clip-path">
      <rect id="Rectangle_439" width="37" height="24.519" transform="translate(0 0.001)" fill="none"></rect>
    </clipPath>
  </defs>
  <g id="Group_588" transform="translate(-1761 -6761)">
    <g id="Group_587" transform="translate(1777 6783)">
      <g id="Group_586" clip-path="url(#clip-path)">
        <path id="Path_173" d="M28.126,8.272q-.384,0-.759.038A10.747,10.747,0,0,0,6.958,9.575,6.788,6.788,0,0,0,8.288,23.02H28.126a7.374,7.374,0,1,0,0-14.748Z" fill="none" stroke="#fff" stroke-miterlimit="10" stroke-width="3"></path>
        <path id="Path_174" d="M27.28,8.072a10.785,10.785,0,0,1-.356,9.135" fill="none" stroke="#fff" stroke-linejoin="round" stroke-width="3"></path>
        <path id="Path_175" d="M6.92,9.58a6.8,6.8,0,0,1,7.552,3.845" fill="none" stroke="#fff" stroke-linejoin="round" stroke-width="3"></path>
      </g>
    </g>
    <g id="Ellipse_70" transform="translate(1761 6761)" fill="none" stroke="#fff" stroke-width="2.5" opacity="0.099">
      <circle cx="34.5" cy="34.5" r="34.5" stroke="none"></circle>
      <circle cx="34.5" cy="34.5" r="33.25" fill="none"></circle>
    </g>
  </g>
</svg>
