<svg width="743" height="387" viewBox="0 0 743 387" fill="none" xmlns="http://www.w3.org/2000/svg">
<rect opacity="0.6" x="0.5" y="0.5" width="742" height="386" rx="7.5" stroke="#E5DCF2"></rect>
<path opacity="0.6" d="M0 39H743" stroke="#E5DCF2"></path>
<path opacity="0.6" d="M75 0L75 386" stroke="#E5DCF2"></path>
<path opacity="0.6" d="M148 0L148 386" stroke="#E5DCF2"></path>
<path opacity="0.6" d="M223 0L223 386" stroke="#E5DCF2"></path>
<path opacity="0.6" d="M298 0L298 386" stroke="#E5DCF2"></path>
<path opacity="0.6" d="M372 0L372 386" stroke="#E5DCF2"></path>
<path opacity="0.6" d="M447 0L447 386" stroke="#E5DCF2"></path>
<path opacity="0.6" d="M521 0L521 386" stroke="#E5DCF2"></path>
<path opacity="0.6" d="M595 0L595 386" stroke="#E5DCF2"></path>
<path opacity="0.6" d="M669 0L669 386" stroke="#E5DCF2"></path>
<path opacity="0.6" d="M0 77H743" stroke="#E5DCF2"></path>
<path opacity="0.6" d="M0 117H742" stroke="#E5DCF2"></path>
<path opacity="0.6" d="M0 155H743" stroke="#E5DCF2"></path>
<path opacity="0.6" d="M0 194H743" stroke="#E5DCF2"></path>
<path opacity="0.6" d="M0 233H743" stroke="#E5DCF2"></path>
<path opacity="0.6" d="M0 270H743" stroke="#E5DCF2"></path>
<path opacity="0.6" d="M0 309H743" stroke="#E5DCF2"></path>
<path opacity="0.6" d="M1 348H742" stroke="#E5DCF2"></path>
<rect x="566" y="39" width="28" height="28" rx="14" fill="#F5EFFF"></rect>
<rect x="520" y="45" width="28" height="28" rx="14" fill="#F5EFFF"></rect>
<rect x="523" y="75" width="28" height="28" rx="14" fill="#F5EFFF"></rect>
<rect x="548" y="61" width="28" height="28" rx="14" fill="#F5EFFF"></rect>
<rect x="578" y="129" width="28" height="28" rx="14" fill="#F5EFFF"></rect>
<rect x="514" y="207" width="28" height="28" rx="14" fill="#F5EFFF"></rect>
<rect x="563" y="205" width="28" height="28" rx="14" fill="#F5EFFF"></rect>
<rect x="591" y="228" width="28" height="28" rx="14" fill="#F5EFFF"></rect>
<rect x="384" y="287" width="28" height="28" rx="14" fill="#F5EFFF"></rect>
<rect x="43" y="184" width="28" height="28" rx="14" fill="#F5EFFF"></rect>
<rect x="46" y="216" width="28" height="28" rx="14" fill="#F5EFFF"></rect>
<rect x="206" y="240" width="28" height="28" rx="14" fill="#F5EFFF"></rect>
<rect x="238" y="188" width="28" height="28" rx="14" fill="#F5EFFF"></rect>
<rect x="239" y="138" width="28" height="28" rx="14" fill="#F5EFFF"></rect>
<rect x="252" y="158" width="28" height="28" rx="14" fill="#F5EFFF"></rect>
<rect x="284" y="88" width="28" height="28" rx="14" fill="#F5EFFF"></rect>
<rect x="286" y="113" width="28" height="28" rx="14" fill="#F5EFFF"></rect>
<rect x="204" y="165" width="28" height="28" rx="14" fill="#F5EFFF"></rect>
<rect x="397" y="317" width="28" height="28" rx="14" fill="#F5EFFF"></rect>
<rect x="490" y="307" width="28" height="28" rx="14" fill="#F5EFFF"></rect>
<rect x="523" y="342" width="28" height="28" rx="14" fill="#F5EFFF"></rect>
<rect x="378" y="331" width="28" height="28" rx="14" fill="#F5EFFF"></rect>
<rect x="647" y="137" width="28" height="28" rx="14" fill="#F5EFFF"></rect>
<rect x="633" y="103" width="28" height="28" rx="14" fill="#F5EFFF"></rect>
<path d="M638 88.5C638 73.8645 649.864 62 664.5 62V62C679.136 62 691 73.8645 691 88.5V90.5C691 105.136 679.136 117 664.5 117V117C649.864 117 638 105.136 638 90.5V88.5Z" fill="#764ABC"></path>
<path d="M655 92.4248C655.052 92.1963 655.09 91.9806 655.142 91.7521C655.335 90.9271 655.76 90.2544 656.429 89.734C656.931 89.3406 657.421 88.9471 657.936 88.5791C658.167 88.4141 658.245 88.2237 658.245 87.9444C658.116 83.4133 659.893 79.593 662.88 76.255C663.266 75.8235 663.756 75.4935 664.206 75.1254C664.412 74.9604 664.58 74.9604 664.798 75.1127C665.648 75.6838 666.318 76.4073 666.949 77.1942C668.648 79.3392 669.872 81.7126 670.451 84.378C670.721 85.6091 670.863 86.8529 670.76 88.1095C670.747 88.2237 670.85 88.376 670.953 88.4521C671.43 88.8456 671.906 89.2264 672.408 89.5817C673.786 90.6098 674.249 91.9425 673.876 93.5925C673.58 94.8997 673.271 96.207 673.039 97.5397C672.872 98.5678 671.597 98.8343 670.927 98.2505C670.013 97.4509 669.035 96.7147 668.095 95.9405C667.902 95.7882 667.786 95.7628 667.58 95.9405C665.777 97.4128 663.318 97.4255 661.477 95.9913C661.258 95.8136 661.103 95.8136 660.897 95.9913C660.073 96.6893 659.223 97.3747 658.399 98.0728C657.987 98.4282 657.549 98.682 656.97 98.4789C656.545 98.3393 656.249 98.0601 656.146 97.6159C655.798 96.1309 655.451 94.6459 655.103 93.1609C655.064 92.9959 655.039 92.8309 655 92.6659C655 92.5898 655 92.5136 655 92.4248ZM664.489 86.8656C665.829 86.9418 667.206 85.8883 667.232 84.3018C667.258 82.8803 666.009 81.7126 664.489 81.7126C662.983 81.7126 661.773 82.8549 661.773 84.2764C661.773 85.736 662.944 86.8656 664.489 86.8656Z" fill="white"></path>
<path d="M666.292 101.322C666.112 101.665 665.944 101.969 665.777 102.261C665.545 102.693 665.314 103.124 665.095 103.556C664.966 103.81 664.786 104 664.489 104C664.193 104 664.013 103.822 663.884 103.568C663.575 102.947 663.228 102.325 662.906 101.715C662.841 101.601 662.777 101.487 662.687 101.347C662.442 101.563 662.21 101.766 661.992 101.982C661.786 102.185 661.554 102.274 661.271 102.147C660.987 102.02 660.923 101.804 660.923 101.525C660.936 100.687 660.923 99.8497 660.923 98.9993C660.923 98.4916 661.335 98.2251 661.798 98.4408C663.588 99.2531 665.365 99.2531 667.155 98.4408C667.631 98.2251 668.043 98.5043 668.056 99.0247C668.056 99.8624 668.056 100.7 668.056 101.55C668.056 101.83 667.966 102.02 667.708 102.134C667.438 102.261 667.206 102.198 667 102.007C666.794 101.792 666.575 101.576 666.292 101.322Z" fill="white"></path>
<path d="M665.738 84.3399C665.738 85.0253 665.185 85.5456 664.464 85.5456C663.768 85.5456 663.163 84.9872 663.176 84.3272C663.189 83.6672 663.807 83.0834 664.489 83.096C665.21 83.1087 665.738 83.6418 665.738 84.3399Z" fill="white"></path>
<path d="M25.008 16.34C24.768 16.028 24.464 15.788 24.096 15.62C23.728 15.452 23.348 15.368 22.956 15.368C22.476 15.368 22.04 15.46 21.648 15.644C21.264 15.82 20.932 16.064 20.652 16.376C20.38 16.688 20.168 17.056 20.016 17.48C19.864 17.896 19.788 18.344 19.788 18.824C19.788 19.272 19.86 19.696 20.004 20.096C20.148 20.496 20.356 20.848 20.628 21.152C20.9 21.456 21.232 21.696 21.624 21.872C22.016 22.048 22.46 22.136 22.956 22.136C23.444 22.136 23.872 22.036 24.24 21.836C24.608 21.636 24.92 21.356 25.176 20.996L26.148 21.728C26.084 21.816 25.972 21.944 25.812 22.112C25.652 22.272 25.44 22.436 25.176 22.604C24.912 22.764 24.592 22.904 24.216 23.024C23.848 23.152 23.42 23.216 22.932 23.216C22.26 23.216 21.652 23.088 21.108 22.832C20.572 22.576 20.112 22.24 19.728 21.824C19.352 21.408 19.064 20.94 18.864 20.42C18.664 19.892 18.564 19.36 18.564 18.824C18.564 18.168 18.672 17.564 18.888 17.012C19.104 16.452 19.404 15.972 19.788 15.572C20.18 15.164 20.648 14.848 21.192 14.624C21.736 14.4 22.336 14.288 22.992 14.288C23.552 14.288 24.1 14.396 24.636 14.612C25.18 14.828 25.624 15.16 25.968 15.608L25.008 16.34ZM32.1612 23.216C31.5132 23.216 30.9172 23.104 30.3732 22.88C29.8292 22.648 29.3612 22.332 28.9692 21.932C28.5852 21.532 28.2812 21.06 28.0572 20.516C27.8412 19.972 27.7332 19.384 27.7332 18.752C27.7332 18.12 27.8412 17.532 28.0572 16.988C28.2812 16.444 28.5852 15.972 28.9692 15.572C29.3612 15.172 29.8292 14.86 30.3732 14.636C30.9172 14.404 31.5132 14.288 32.1612 14.288C32.8092 14.288 33.4052 14.404 33.9492 14.636C34.4932 14.86 34.9572 15.172 35.3412 15.572C35.7332 15.972 36.0372 16.444 36.2532 16.988C36.4772 17.532 36.5892 18.12 36.5892 18.752C36.5892 19.384 36.4772 19.972 36.2532 20.516C36.0372 21.06 35.7332 21.532 35.3412 21.932C34.9572 22.332 34.4932 22.648 33.9492 22.88C33.4052 23.104 32.8092 23.216 32.1612 23.216ZM32.1612 22.136C32.6492 22.136 33.0892 22.048 33.4812 21.872C33.8732 21.688 34.2092 21.444 34.4892 21.14C34.7692 20.836 34.9852 20.48 35.1372 20.072C35.2892 19.656 35.3652 19.216 35.3652 18.752C35.3652 18.288 35.2892 17.852 35.1372 17.444C34.9852 17.028 34.7692 16.668 34.4892 16.364C34.2092 16.06 33.8732 15.82 33.4812 15.644C33.0892 15.46 32.6492 15.368 32.1612 15.368C31.6732 15.368 31.2332 15.46 30.8412 15.644C30.4492 15.82 30.1132 16.06 29.8332 16.364C29.5532 16.668 29.3372 17.028 29.1852 17.444C29.0332 17.852 28.9572 18.288 28.9572 18.752C28.9572 19.216 29.0332 19.656 29.1852 20.072C29.3372 20.48 29.5532 20.836 29.8332 21.14C30.1132 21.444 30.4492 21.688 30.8412 21.872C31.2332 22.048 31.6732 22.136 32.1612 22.136ZM38.9656 14.504H40.4776L45.1576 21.488H45.1816V14.504H46.3336V23H44.8696L40.1416 16.016H40.1176V23H38.9656V14.504ZM51.0124 15.584H48.2764V14.504H54.9004V15.584H52.1644V23H51.0124V15.584ZM56.847 14.504H62.331V15.584H57.999V18.116H62.031V19.196H57.999V21.92H62.547V23H56.847V14.504ZM64.9029 14.504H66.4149L71.0949 21.488H71.1189V14.504H72.2709V23H70.8069L66.0789 16.016H66.0549V23H64.9029V14.504ZM74.9817 14.504H77.9457C78.5457 14.504 79.0697 14.572 79.5177 14.708C79.9737 14.844 80.3657 15.028 80.6937 15.26C81.0297 15.484 81.3057 15.744 81.5217 16.04C81.7457 16.336 81.9217 16.64 82.0497 16.952C82.1777 17.264 82.2697 17.576 82.3257 17.888C82.3817 18.2 82.4097 18.488 82.4097 18.752C82.4097 19.296 82.3097 19.824 82.1097 20.336C81.9097 20.84 81.6137 21.292 81.2217 21.692C80.8297 22.084 80.3417 22.4 79.7577 22.64C79.1817 22.88 78.5137 23 77.7537 23H74.9817V14.504ZM76.1337 21.92H77.5857C78.0737 21.92 78.5337 21.856 78.9657 21.728C79.4057 21.592 79.7897 21.392 80.1177 21.128C80.4457 20.864 80.7057 20.536 80.8977 20.144C81.0897 19.744 81.1857 19.28 81.1857 18.752C81.1857 18.48 81.1417 18.164 81.0537 17.804C80.9657 17.436 80.7977 17.088 80.5497 16.76C80.3097 16.432 79.9737 16.156 79.5417 15.932C79.1097 15.7 78.5497 15.584 77.8617 15.584H76.1337V21.92ZM84.7883 14.504H90.2723V15.584H85.9403V18.116H89.9723V19.196H85.9403V21.92H90.4883V23H84.7883V14.504ZM92.8442 14.504H95.8322C96.3762 14.504 96.8242 14.58 97.1762 14.732C97.5282 14.876 97.8042 15.064 98.0042 15.296C98.2122 15.52 98.3562 15.776 98.4362 16.064C98.5162 16.344 98.5562 16.616 98.5562 16.88C98.5562 17.152 98.5082 17.416 98.4122 17.672C98.3162 17.92 98.1762 18.148 97.9922 18.356C97.8162 18.556 97.5962 18.728 97.3322 18.872C97.0762 19.008 96.7882 19.092 96.4682 19.124L98.8802 23H97.4402L95.2802 19.256H93.9962V23H92.8442V14.504ZM93.9962 18.248H95.5082C95.7322 18.248 95.9522 18.232 96.1682 18.2C96.3922 18.16 96.5882 18.092 96.7562 17.996C96.9322 17.9 97.0722 17.764 97.1762 17.588C97.2802 17.404 97.3322 17.168 97.3322 16.88C97.3322 16.592 97.2802 16.36 97.1762 16.184C97.0722 16 96.9322 15.86 96.7562 15.764C96.5882 15.668 96.3922 15.604 96.1682 15.572C95.9522 15.532 95.7322 15.512 95.5082 15.512H93.9962V18.248ZM101.152 21.224C101.36 21.536 101.624 21.768 101.944 21.92C102.272 22.064 102.608 22.136 102.952 22.136C103.144 22.136 103.34 22.108 103.54 22.052C103.74 21.988 103.92 21.896 104.08 21.776C104.248 21.656 104.384 21.508 104.488 21.332C104.592 21.156 104.644 20.952 104.644 20.72C104.644 20.392 104.54 20.144 104.332 19.976C104.124 19.8 103.864 19.656 103.552 19.544C103.248 19.424 102.912 19.312 102.544 19.208C102.184 19.096 101.848 18.944 101.536 18.752C101.232 18.56 100.976 18.304 100.768 17.984C100.56 17.656 100.456 17.216 100.456 16.664C100.456 16.416 100.508 16.152 100.612 15.872C100.724 15.592 100.896 15.336 101.128 15.104C101.36 14.872 101.656 14.68 102.016 14.528C102.384 14.368 102.824 14.288 103.336 14.288C103.8 14.288 104.244 14.352 104.668 14.48C105.092 14.608 105.464 14.868 105.784 15.26L104.848 16.112C104.704 15.888 104.5 15.708 104.236 15.572C103.972 15.436 103.672 15.368 103.336 15.368C103.016 15.368 102.748 15.412 102.532 15.5C102.324 15.58 102.156 15.688 102.028 15.824C101.9 15.952 101.808 16.092 101.752 16.244C101.704 16.396 101.68 16.536 101.68 16.664C101.68 17.024 101.784 17.3 101.992 17.492C102.2 17.684 102.456 17.84 102.76 17.96C103.072 18.08 103.408 18.188 103.768 18.284C104.136 18.38 104.472 18.516 104.776 18.692C105.088 18.86 105.348 19.092 105.556 19.388C105.764 19.676 105.868 20.076 105.868 20.588C105.868 20.996 105.788 21.364 105.628 21.692C105.476 22.02 105.268 22.296 105.004 22.52C104.74 22.744 104.428 22.916 104.068 23.036C103.708 23.156 103.324 23.216 102.916 23.216C102.372 23.216 101.856 23.12 101.368 22.928C100.88 22.736 100.492 22.44 100.204 22.04L101.152 21.224Z" fill="#764ABC"></path>
<path d="M19.092 363.504H20.604L25.284 370.488H25.308V363.504H26.46V372H24.996L20.268 365.016H20.244V372H19.092V363.504ZM29.3628 363.504H30.5148V372H29.3628V363.504ZM39.3386 365.34C39.0986 365.028 38.7946 364.788 38.4266 364.62C38.0586 364.452 37.6786 364.368 37.2866 364.368C36.8066 364.368 36.3706 364.46 35.9786 364.644C35.5946 364.82 35.2626 365.064 34.9826 365.376C34.7106 365.688 34.4986 366.056 34.3466 366.48C34.1946 366.896 34.1186 367.344 34.1186 367.824C34.1186 368.272 34.1906 368.696 34.3346 369.096C34.4786 369.496 34.6866 369.848 34.9586 370.152C35.2306 370.456 35.5626 370.696 35.9546 370.872C36.3466 371.048 36.7906 371.136 37.2866 371.136C37.7746 371.136 38.2026 371.036 38.5706 370.836C38.9386 370.636 39.2506 370.356 39.5066 369.996L40.4786 370.728C40.4146 370.816 40.3026 370.944 40.1426 371.112C39.9826 371.272 39.7706 371.436 39.5066 371.604C39.2426 371.764 38.9226 371.904 38.5466 372.024C38.1786 372.152 37.7506 372.216 37.2626 372.216C36.5906 372.216 35.9826 372.088 35.4386 371.832C34.9026 371.576 34.4426 371.24 34.0586 370.824C33.6826 370.408 33.3946 369.94 33.1946 369.42C32.9946 368.892 32.8946 368.36 32.8946 367.824C32.8946 367.168 33.0026 366.564 33.2186 366.012C33.4346 365.452 33.7346 364.972 34.1186 364.572C34.5106 364.164 34.9786 363.848 35.5226 363.624C36.0666 363.4 36.6666 363.288 37.3226 363.288C37.8826 363.288 38.4306 363.396 38.9666 363.612C39.5106 363.828 39.9546 364.16 40.2986 364.608L39.3386 365.34ZM42.5918 363.504H43.7438V367.032H48.1478V363.504H49.2998V372H48.1478V368.112H43.7438V372H42.5918V363.504ZM52.2064 363.504H57.6904V364.584H53.3584V367.116H57.3904V368.196H53.3584V370.92H57.9064V372H52.2064V363.504Z" fill="#764ABC"></path>
<path d="M672.53 14.504H673.682V21.92H677.582V23H672.53V14.504ZM679.472 14.504H684.956V15.584H680.624V18.116H684.656V19.196H680.624V21.92H685.172V23H679.472V14.504ZM690.192 14.504H691.236L694.872 23H693.528L692.676 20.9H688.632L687.792 23H686.448L690.192 14.504ZM692.256 19.892L690.672 15.992H690.648L689.04 19.892H692.256ZM696.506 14.504H699.47C700.07 14.504 700.594 14.572 701.042 14.708C701.498 14.844 701.89 15.028 702.218 15.26C702.554 15.484 702.83 15.744 703.046 16.04C703.27 16.336 703.446 16.64 703.574 16.952C703.702 17.264 703.794 17.576 703.85 17.888C703.906 18.2 703.934 18.488 703.934 18.752C703.934 19.296 703.834 19.824 703.634 20.336C703.434 20.84 703.138 21.292 702.746 21.692C702.354 22.084 701.866 22.4 701.282 22.64C700.706 22.88 700.038 23 699.278 23H696.506V14.504ZM697.658 21.92H699.11C699.598 21.92 700.058 21.856 700.49 21.728C700.93 21.592 701.314 21.392 701.642 21.128C701.97 20.864 702.23 20.536 702.422 20.144C702.614 19.744 702.71 19.28 702.71 18.752C702.71 18.48 702.666 18.164 702.578 17.804C702.49 17.436 702.322 17.088 702.074 16.76C701.834 16.432 701.498 16.156 701.066 15.932C700.634 15.7 700.074 15.584 699.386 15.584H697.658V21.92ZM706.312 14.504H711.796V15.584H707.464V18.116H711.496V19.196H707.464V21.92H712.012V23H706.312V14.504ZM714.368 14.504H717.356C717.9 14.504 718.348 14.58 718.7 14.732C719.052 14.876 719.328 15.064 719.528 15.296C719.736 15.52 719.88 15.776 719.96 16.064C720.04 16.344 720.08 16.616 720.08 16.88C720.08 17.152 720.032 17.416 719.936 17.672C719.84 17.92 719.7 18.148 719.516 18.356C719.34 18.556 719.12 18.728 718.856 18.872C718.6 19.008 718.312 19.092 717.992 19.124L720.404 23H718.964L716.804 19.256H715.52V23H714.368V14.504ZM715.52 18.248H717.032C717.256 18.248 717.476 18.232 717.692 18.2C717.916 18.16 718.112 18.092 718.28 17.996C718.456 17.9 718.596 17.764 718.7 17.588C718.804 17.404 718.856 17.168 718.856 16.88C718.856 16.592 718.804 16.36 718.7 16.184C718.596 16 718.456 15.86 718.28 15.764C718.112 15.668 717.916 15.604 717.692 15.572C717.476 15.532 717.256 15.512 717.032 15.512H715.52V18.248ZM722.676 21.224C722.884 21.536 723.148 21.768 723.468 21.92C723.796 22.064 724.132 22.136 724.476 22.136C724.668 22.136 724.864 22.108 725.064 22.052C725.264 21.988 725.444 21.896 725.604 21.776C725.772 21.656 725.908 21.508 726.012 21.332C726.116 21.156 726.168 20.952 726.168 20.72C726.168 20.392 726.064 20.144 725.856 19.976C725.648 19.8 725.388 19.656 725.076 19.544C724.772 19.424 724.436 19.312 724.068 19.208C723.708 19.096 723.372 18.944 723.06 18.752C722.756 18.56 722.5 18.304 722.292 17.984C722.084 17.656 721.98 17.216 721.98 16.664C721.98 16.416 722.032 16.152 722.136 15.872C722.248 15.592 722.42 15.336 722.652 15.104C722.884 14.872 723.18 14.68 723.54 14.528C723.908 14.368 724.348 14.288 724.86 14.288C725.324 14.288 725.768 14.352 726.192 14.48C726.616 14.608 726.988 14.868 727.308 15.26L726.372 16.112C726.228 15.888 726.024 15.708 725.76 15.572C725.496 15.436 725.196 15.368 724.86 15.368C724.54 15.368 724.272 15.412 724.056 15.5C723.848 15.58 723.68 15.688 723.552 15.824C723.424 15.952 723.332 16.092 723.276 16.244C723.228 16.396 723.204 16.536 723.204 16.664C723.204 17.024 723.308 17.3 723.516 17.492C723.724 17.684 723.98 17.84 724.284 17.96C724.596 18.08 724.932 18.188 725.292 18.284C725.66 18.38 725.996 18.516 726.3 18.692C726.612 18.86 726.872 19.092 727.08 19.388C727.288 19.676 727.392 20.076 727.392 20.588C727.392 20.996 727.312 21.364 727.152 21.692C727 22.02 726.792 22.296 726.528 22.52C726.264 22.744 725.952 22.916 725.592 23.036C725.232 23.156 724.848 23.216 724.44 23.216C723.896 23.216 723.38 23.12 722.892 22.928C722.404 22.736 722.016 22.44 721.728 22.04L722.676 21.224Z" fill="#764ABC"></path>
<path d="M593.827 363.504H594.979V367.032H599.383V363.504H600.535V372H599.383V368.112H594.979V372H593.827V363.504ZM603.442 363.504H604.594V372H603.442V363.504ZM614.738 367.248V371.436C614.53 371.564 614.294 371.676 614.03 371.772C613.766 371.868 613.49 371.948 613.202 372.012C612.922 372.084 612.634 372.136 612.338 372.168C612.05 372.2 611.778 372.216 611.522 372.216C610.802 372.216 610.158 372.096 609.59 371.856C609.03 371.616 608.554 371.292 608.162 370.884C607.778 370.476 607.482 370.004 607.274 369.468C607.074 368.924 606.974 368.352 606.974 367.752C606.974 367.12 607.082 366.532 607.298 365.988C607.522 365.444 607.826 364.972 608.21 364.572C608.602 364.172 609.07 363.86 609.614 363.636C610.158 363.404 610.754 363.288 611.402 363.288C612.186 363.288 612.826 363.388 613.322 363.588C613.818 363.78 614.234 364.048 614.57 364.392L613.754 365.268C613.402 364.932 613.03 364.7 612.638 364.572C612.246 364.436 611.834 364.368 611.402 364.368C610.914 364.368 610.474 364.46 610.082 364.644C609.69 364.82 609.354 365.06 609.074 365.364C608.794 365.668 608.578 366.028 608.426 366.444C608.274 366.852 608.198 367.288 608.198 367.752C608.198 368.232 608.282 368.68 608.45 369.096C608.618 369.504 608.85 369.86 609.146 370.164C609.442 370.468 609.79 370.708 610.19 370.884C610.59 371.052 611.026 371.136 611.498 371.136C611.906 371.136 612.29 371.1 612.65 371.028C613.018 370.948 613.33 370.836 613.586 370.692V368.328H611.702V367.248H614.738ZM617.561 363.504H618.713V367.032H623.117V363.504H624.269V372H623.117V368.112H618.713V372H617.561V363.504ZM631.236 363.504H634.224C634.768 363.504 635.216 363.58 635.568 363.732C635.92 363.876 636.196 364.064 636.396 364.296C636.604 364.52 636.748 364.776 636.828 365.064C636.908 365.344 636.948 365.616 636.948 365.88C636.948 366.144 636.908 366.42 636.828 366.708C636.748 366.988 636.604 367.244 636.396 367.476C636.196 367.7 635.92 367.888 635.568 368.04C635.216 368.184 634.768 368.256 634.224 368.256H632.388V372H631.236V363.504ZM632.388 367.248H633.9C634.124 367.248 634.344 367.232 634.56 367.2C634.784 367.16 634.98 367.092 635.148 366.996C635.324 366.9 635.464 366.764 635.568 366.588C635.672 366.404 635.724 366.168 635.724 365.88C635.724 365.592 635.672 365.36 635.568 365.184C635.464 365 635.324 364.86 635.148 364.764C634.98 364.668 634.784 364.604 634.56 364.572C634.344 364.532 634.124 364.512 633.9 364.512H632.388V367.248ZM639.069 363.504H644.553V364.584H640.221V367.116H644.253V368.196H640.221V370.92H644.769V372H639.069V363.504ZM647.125 363.504H650.113C650.657 363.504 651.105 363.58 651.457 363.732C651.809 363.876 652.085 364.064 652.285 364.296C652.493 364.52 652.637 364.776 652.717 365.064C652.797 365.344 652.837 365.616 652.837 365.88C652.837 366.152 652.789 366.416 652.693 366.672C652.597 366.92 652.457 367.148 652.273 367.356C652.097 367.556 651.877 367.728 651.613 367.872C651.357 368.008 651.069 368.092 650.749 368.124L653.161 372H651.721L649.561 368.256H648.277V372H647.125V363.504ZM648.277 367.248H649.789C650.013 367.248 650.233 367.232 650.449 367.2C650.673 367.16 650.869 367.092 651.037 366.996C651.213 366.9 651.353 366.764 651.457 366.588C651.561 366.404 651.613 366.168 651.613 365.88C651.613 365.592 651.561 365.36 651.457 365.184C651.353 365 651.213 364.86 651.037 364.764C650.869 364.668 650.673 364.604 650.449 364.572C650.233 364.532 650.013 364.512 649.789 364.512H648.277V367.248ZM655.181 363.504H660.521V364.584H656.333V367.248H660.233V368.328H656.333V372H655.181V363.504ZM666.692 372.216C666.044 372.216 665.448 372.104 664.904 371.88C664.36 371.648 663.892 371.332 663.5 370.932C663.116 370.532 662.812 370.06 662.588 369.516C662.372 368.972 662.264 368.384 662.264 367.752C662.264 367.12 662.372 366.532 662.588 365.988C662.812 365.444 663.116 364.972 663.5 364.572C663.892 364.172 664.36 363.86 664.904 363.636C665.448 363.404 666.044 363.288 666.692 363.288C667.34 363.288 667.936 363.404 668.48 363.636C669.024 363.86 669.488 364.172 669.872 364.572C670.264 364.972 670.568 365.444 670.784 365.988C671.008 366.532 671.12 367.12 671.12 367.752C671.12 368.384 671.008 368.972 670.784 369.516C670.568 370.06 670.264 370.532 669.872 370.932C669.488 371.332 669.024 371.648 668.48 371.88C667.936 372.104 667.34 372.216 666.692 372.216ZM666.692 371.136C667.18 371.136 667.62 371.048 668.012 370.872C668.404 370.688 668.74 370.444 669.02 370.14C669.3 369.836 669.516 369.48 669.668 369.072C669.82 368.656 669.896 368.216 669.896 367.752C669.896 367.288 669.82 366.852 669.668 366.444C669.516 366.028 669.3 365.668 669.02 365.364C668.74 365.06 668.404 364.82 668.012 364.644C667.62 364.46 667.18 364.368 666.692 364.368C666.204 364.368 665.764 364.46 665.372 364.644C664.98 364.82 664.644 365.06 664.364 365.364C664.084 365.668 663.868 366.028 663.716 366.444C663.564 366.852 663.488 367.288 663.488 367.752C663.488 368.216 663.564 368.656 663.716 369.072C663.868 369.48 664.084 369.836 664.364 370.14C664.644 370.444 664.98 370.688 665.372 370.872C665.764 371.048 666.204 371.136 666.692 371.136ZM673.496 363.504H676.484C677.028 363.504 677.476 363.58 677.828 363.732C678.18 363.876 678.456 364.064 678.656 364.296C678.864 364.52 679.008 364.776 679.088 365.064C679.168 365.344 679.208 365.616 679.208 365.88C679.208 366.152 679.16 366.416 679.064 366.672C678.968 366.92 678.828 367.148 678.644 367.356C678.468 367.556 678.248 367.728 677.984 367.872C677.728 368.008 677.44 368.092 677.12 368.124L679.532 372H678.092L675.932 368.256H674.648V372H673.496V363.504ZM674.648 367.248H676.16C676.384 367.248 676.604 367.232 676.82 367.2C677.044 367.16 677.24 367.092 677.408 366.996C677.584 366.9 677.724 366.764 677.828 366.588C677.932 366.404 677.984 366.168 677.984 365.88C677.984 365.592 677.932 365.36 677.828 365.184C677.724 365 677.584 364.86 677.408 364.764C677.24 364.668 677.044 364.604 676.82 364.572C676.604 364.532 676.384 364.512 676.16 364.512H674.648V367.248ZM681.468 363.504H683.184L685.884 369.936H685.932L688.608 363.504H690.324V372H689.172V365.016H689.148L686.28 372H685.512L682.644 365.016H682.62V372H681.468V363.504ZM695.811 363.504H696.855L700.491 372H699.147L698.295 369.9H694.251L693.411 372H692.067L695.811 363.504ZM697.875 368.892L696.291 364.992H696.267L694.659 368.892H697.875ZM702.316 363.504H703.828L708.508 370.488H708.532V363.504H709.684V372H708.22L703.492 365.016H703.468V372H702.316V363.504ZM718.503 365.34C718.263 365.028 717.959 364.788 717.591 364.62C717.223 364.452 716.843 364.368 716.451 364.368C715.971 364.368 715.535 364.46 715.143 364.644C714.759 364.82 714.427 365.064 714.147 365.376C713.875 365.688 713.663 366.056 713.511 366.48C713.359 366.896 713.283 367.344 713.283 367.824C713.283 368.272 713.355 368.696 713.499 369.096C713.643 369.496 713.851 369.848 714.123 370.152C714.395 370.456 714.727 370.696 715.119 370.872C715.511 371.048 715.955 371.136 716.451 371.136C716.939 371.136 717.367 371.036 717.735 370.836C718.103 370.636 718.415 370.356 718.671 369.996L719.643 370.728C719.579 370.816 719.467 370.944 719.307 371.112C719.147 371.272 718.935 371.436 718.671 371.604C718.407 371.764 718.087 371.904 717.711 372.024C717.343 372.152 716.915 372.216 716.427 372.216C715.755 372.216 715.147 372.088 714.603 371.832C714.067 371.576 713.607 371.24 713.223 370.824C712.847 370.408 712.559 369.94 712.359 369.42C712.159 368.892 712.059 368.36 712.059 367.824C712.059 367.168 712.167 366.564 712.383 366.012C712.599 365.452 712.899 364.972 713.283 364.572C713.675 364.164 714.143 363.848 714.687 363.624C715.231 363.4 715.831 363.288 716.487 363.288C717.047 363.288 717.595 363.396 718.131 363.612C718.675 363.828 719.119 364.16 719.463 364.608L718.503 365.34ZM721.756 363.504H727.24V364.584H722.908V367.116H726.94V368.196H722.908V370.92H727.456V372H721.756V363.504Z" fill="#764ABC"></path>
</svg>
